<svg viewBox="0 0 512 512" xmlns="http://www.w3.org/2000/svg">
    <style>
        path {
            fill: #333;
        }

        @media (prefers-color-scheme: dark) {
            path {
                fill: #fff;
            }
        }
    </style>
  <path d="M367.25,234l25.42-25.42L369,184.89l43-43a10.86,10.86,0,0,0,3.08-9.16,10.8,10.8,0,0,0-3-9.14l-76.2-76.2H176.23L100,123.61a10.79,10.79,0,0,0-3,9.14,10.86,10.86,0,0,0,3.08,9.16l43,43-23.71,23.7L144.76,234A255.17,255.17,0,0,0,0,464.59H19a236.29,236.29,0,0,1,145.87-218.8l13.07-5.44-31.75-31.76,10.29-10.29,37.5,37.49,5.23-1.32a226,226,0,0,1,29.56-5.37,244.31,244.31,0,0,1,40.86-1.16q6.8.39,13.66,1.16a222.17,222.17,0,0,1,29.56,5.37l5.23,1.32,37.5-37.49,10.31,10.29-31.76,31.77,13.07,5.44A236.26,236.26,0,0,1,493,464.59h19A255.17,255.17,0,0,0,367.25,234ZM327.93,66.37l56.89,56.89H326.67L276.9,66.37ZM256,71.29l45.47,52h-91Zm-71.93-4.92h51l-49.77,56.89H127.18Zm29.28,145.78q-6.94,1.17-13.58,2.66l-43.33-43.33-29.26-29.26h56.24l12.07,27.6L214,212C213.75,212.07,213.56,212.12,213.35,212.15Zm65.07-2.58c-.83-.08-1.65,0-2.48-.11-6.6-.51-13.17-.87-19.73-.87h-.47c-6.52,0-13.08.35-19.66.86-.84.06-1.66,0-2.5.11l-29.45-67.35H307.87Zm77.14-38.09-43.33,43.33q-6.63-1.5-13.56-2.66l-.62-.13,18.46-42.21,12.06-27.59h56.24Z"/>
</svg>



