<svg xmlns="http://www.w3.org/2000/svg" viewBox="0 0 380 512"><path d="M136.61,62.5A10,10,0,0,0,120,70a9.82,9.82,0,0,0,.27,2.32,10,10,0,1,0,16.34-9.82Z" fill="#690308"/><path d="M190,40a128,128,0,0,0-28.64,3.17,10,10,0,1,0,4.4,19.51,110,110,0,1,1-61.2,38,10,10,0,0,0-15.5-12.63A129.44,129.44,0,0,0,60,170c0,71.68,58.32,130,130,130s130-58.32,130-130S261.68,40,190,40Z" fill="#690308"/><path d="M338.66,392.62c-20.81-10-48.45-17.64-79-22L329.64,267A169,169,0,0,0,360,170C360,76.26,283.74,0,190,0S20,76.26,20,170a169,169,0,0,0,30.36,97l70,103.63c-30.52,4.36-58.16,12-79,22C7.17,409,0,426.9,0,439c0,20.76,21.08,39.71,59.36,53.35C94.93,505,141.32,512,190,512s95.07-7,130.64-19.65C358.92,478.71,380,459.76,380,439,380,426.9,372.83,409,338.66,392.62ZM66.9,255.74l-.08-.13A149,149,0,0,1,40,170C40,87.29,107.29,20,190,20S340,87.29,340,170c0,30.6-8.83,59.28-26.9,85.74L190,438.13Zm247,217.77C280.46,485.43,236.45,492,190,492s-90.46-6.57-123.92-18.49C32.1,461.4,20,447.74,20,439s11.21-19.33,30-28.35c21.16-10.15,50.45-17.73,82.83-21.48l48.88,72.42a10,10,0,0,0,16.58,0l48.88-72.42c32.39,3.75,61.67,11.33,82.83,21.48,18.79,9,30,19.62,30,28.35S347.9,461.4,313.92,473.51Z" fill="#690308"/><path d="M225,110c-17,0-28.13,9.1-35,18.31C183.13,119.1,172,110,155,110c-25.23,0-45,20.9-45,47.58,0,28.52,22.05,46.93,55.42,74.79,5.77,4.81,11.74,9.79,18.07,15.22a10,10,0,0,0,13,0c6.32-5.42,12.29-10.4,18.05-15.21,10.08-8.41,18.78-15.67,26.36-22.75,15.1-14.09,29.08-30.14,29.08-52C270,130.9,250.23,110,225,110Zm2.28,85c-7.18,6.7-15.69,13.8-25.53,22-3.82,3.18-7.71,6.43-11.75,9.84-4.05-3.42-7.95-6.67-11.76-9.86C148.16,191.9,130,176.75,130,157.58c0-15.72,10.75-27.58,25-27.58,18.56,0,25.11,21.81,25.37,22.7A10,10,0,0,0,190,160h0a10,10,0,0,0,9.61-7.24c.27-.93,6.82-22.74,25.38-22.74,14.25,0,25,11.86,25,27.58C250,169.26,243.63,179.75,227.28,195Z" fill="#690308"/></svg>