<svg id="Capa_1" enable-background="new 0 0 512 512" height="512" viewBox="0 0 512 512" width="512" xmlns="http://www.w3.org/2000/svg"><g><g><path d="m256 472.533c-1.941 0-3.881-.648-5.477-1.944-27.39-22.252-53.008-42.163-75.61-59.73-53.021-41.21-94.901-73.76-123.237-107.938-30.552-36.851-44.176-74.348-44.176-121.582 0-6.128.396-12.165 1.164-18.087 8.898-68.613 220.872-102.639 247.336-70.027 26.464-32.612 238.438 1.413 247.336 70.026.768 5.922 1.164 11.959 1.164 18.087 0 47.235-13.624 84.732-44.176 121.581-28.337 34.178-70.216 66.728-123.237 107.938-22.602 17.567-48.22 37.479-75.61 59.73-1.596 1.298-3.537 1.946-5.477 1.946z" fill="#df646e"/><path d="m364.629 41.468c-42.385 0-82.165 19.145-108.629 51.758-26.464-32.612-66.243-51.758-108.629-51.758-70.997 0-129.806 53.172-138.704 121.784 3.871 36.837 17.565 67.98 43.008 98.668 28.337 34.178 70.216 66.728 123.237 107.938 22.602 17.567 48.22 37.479 75.61 59.73 1.596 1.296 3.536 1.944 5.477 1.944s3.881-.648 5.477-1.944c27.39-22.252 53.008-42.163 75.61-59.73 53.021-41.21 94.901-73.76 123.237-107.938 25.443-30.688 39.137-61.831 43.008-98.668-8.896-68.613-67.705-121.784-138.702-121.784z" fill="#e6989e"/><path d="m303.5 249.661c0 59.647-48.353 108-108 108s-108-48.353-108-108 48.353-108 108-108 108 48.354 108 108zm-30 0c0-43.009-34.991-78-78-78s-78 34.991-78 78 34.991 78 78 78 78-34.99 78-78z" fill="#df646e"/><path d="m424.5 249.661c0 59.647-48.353 108-108 108s-108-48.353-108-108 48.353-108 108-108 108 48.354 108 108zm-30 0c0-43.009-34.991-78-78-78s-78 34.991-78 78 34.991 78 78 78 78-34.99 78-78z" fill="#df646e"/><path d="m267.251 199.072c-9.631-22.506-29.553-39.599-53.815-45.33 0 0 1.804-25.441 23.098-24.013 22.964 9.44 41.958 26.565 53.779 48.174z" fill="#ffe07d"/><path d="m244.751 260.248c9.632 22.505 29.555 39.597 53.818 45.327 0 0-1.803 25.441-23.097 24.014-22.965-9.438-41.959-26.563-53.782-48.171z" fill="#9bb9c3"/><path d="m316.5 121.661c-59.647 0-108 48.353-108 108 0 18.753 4.782 36.388 13.19 51.756 9.379-4.749 17.391-12.022 23.065-21.169-4.022-9.397-6.255-19.735-6.255-30.587 0-43.009 34.991-78 78-78s78 34.991 78 78-34.991 78-78 78c-6.171 0-12.169-.742-17.93-2.104-6.623 8.977-14.406 17.057-23.1 24.028 12.651 5.2 26.504 8.075 41.031 8.075 59.647 0 108-48.353 108-108s-48.354-107.999-108.001-107.999z" fill="#e1ebf0"/><path d="m195.5 337.661c59.647 0 108-48.353 108-108 0-18.753-4.782-36.388-13.19-51.756-9.379 4.749-17.391 12.022-23.065 21.169 4.022 9.397 6.255 19.735 6.255 30.587 0 43.009-34.991 78-78 78s-78-34.991-78-78 34.991-78 78-78c6.171 0 12.169.742 17.93 2.104 6.623-8.977 14.406-17.057 23.1-24.028-12.651-5.2-26.504-8.075-41.031-8.075-59.647 0-108 48.353-108 108s48.354 107.999 108.001 107.999z" fill="#fff0af"/></g><path d="m256 479.032c-3.705 0-7.329-1.286-10.205-3.622-27.326-22.2-52.908-42.083-75.479-59.626-53.389-41.496-95.554-74.268-124.415-109.078-31.744-38.289-45.901-77.262-45.901-126.367 0-50.15 25.223-96.425 67.471-123.785 3.477-2.25 8.12-1.259 10.372 2.219 2.251 3.477 1.258 8.12-2.219 10.372-37.961 24.583-60.624 66.151-60.624 111.194 0 45.364 13.092 81.385 42.45 116.794 27.813 33.547 69.407 65.875 122.066 106.804 22.637 17.594 48.287 37.53 75.737 59.831.27.219.555.265.748.265.192 0 .478-.046.749-.266 27.449-22.3 53.099-42.236 75.73-59.826 52.665-40.934 94.259-73.262 122.072-106.809 29.358-35.409 42.45-71.43 42.45-116.794 0-72.99-59.381-132.371-132.371-132.371-40.073 0-77.544 17.854-102.805 48.983-1.424 1.755-3.563 2.774-5.824 2.774-2.26 0-4.4-1.019-5.824-2.774-25.261-31.129-62.732-48.983-102.805-48.983-14.334 0-28.436 2.288-41.914 6.799-3.925 1.314-8.177-.804-9.493-4.732-1.314-3.928.804-8.178 4.731-9.493 15.016-5.026 30.719-7.574 46.675-7.574 41.63 0 80.735 17.305 108.629 47.776 27.894-30.471 66.999-47.776 108.629-47.776 81.26.001 147.37 66.111 147.37 147.372 0 49.105-14.157 88.079-45.902 126.368-28.861 34.81-71.026 67.582-124.409 109.073-22.577 17.547-48.159 37.431-75.484 59.629-2.876 2.337-6.5 3.623-10.205 3.623zm60.5-133.871c-21.531 0-42.36-5.905-60.542-17.12-17.597 10.853-38.31 17.12-60.458 17.12-63.687 0-115.5-51.813-115.5-115.5s51.813-115.5 115.5-115.5c21.531 0 42.36 5.905 60.542 17.121 17.597-10.854 38.31-17.121 60.458-17.121 63.687 0 115.5 51.813 115.5 115.5s-51.813 115.5-115.5 115.5zm-47.178-26.735c14.458 7.704 30.577 11.736 47.178 11.736 55.416 0 100.5-45.084 100.5-100.5s-45.084-100.5-100.5-100.5-100.5 45.083-100.5 100.499c0 12.263 2.181 24.239 6.483 35.595 1.467 3.874-.483 8.204-4.356 9.671-3.874 1.467-8.204-.484-9.671-4.356-4.947-13.06-7.456-26.824-7.456-40.909 0-24.322 7.558-46.913 20.446-65.547-8.22-3.256-17.049-4.953-25.946-4.953-38.874 0-70.5 31.626-70.5 70.5s31.626 70.5 70.5 70.5c19.952 0 37.995-8.331 50.833-21.697-9.926-14.265-15.333-31.365-15.333-48.804 0-47.145 38.355-85.5 85.5-85.5s85.5 38.355 85.5 85.5-38.355 85.5-85.5 85.5c-12.304 0-24.503-2.677-35.628-7.784-3.593 3.943-7.449 7.633-11.55 11.049zm-73.822-189.265c-55.416 0-100.5 45.084-100.5 100.5s45.084 100.5 100.5 100.5 100.5-45.084 100.5-100.5c0-12.263-2.181-24.239-6.483-35.595-1.467-3.874.483-8.204 4.356-9.671 3.875-1.465 8.203.483 9.671 4.356 4.947 13.06 7.456 26.824 7.456 40.909 0 24.322-7.557 46.913-20.446 65.547 8.22 3.256 17.049 4.953 25.946 4.953 38.874 0 70.5-31.626 70.5-70.5s-31.626-70.5-70.5-70.5c-19.952 0-37.995 8.331-50.832 21.697 9.925 14.266 15.332 31.365 15.332 48.804 0 47.145-38.355 85.5-85.5 85.5s-85.5-38.355-85.5-85.5 38.355-85.5 85.5-85.5c12.304 0 24.503 2.677 35.628 7.784 3.592-3.942 7.449-7.633 11.549-11.048-14.457-7.703-30.576-11.736-47.177-11.736zm60.493 64.349c-6.344 10.577-9.993 22.945-9.993 36.151 0 12.749 3.505 25.277 10.007 36.151 6.344-10.577 9.993-22.945 9.993-36.151 0-12.748-3.505-25.277-10.007-36.151z"/></g></svg>